<?xml version="1.0" encoding="utf-8"?>
<!-- Generator: Adobe Illustrator 22.1.0, SVG Export Plug-In . SVG Version: 6.00 Build 0)  -->
<svg version="1.1" id="Слой_1" xmlns="http://www.w3.org/2000/svg" xmlns:xlink="http://www.w3.org/1999/xlink" x="0px" y="0px"
	 viewBox="0 0 1400.2 115.3" style="enable-background:new 0 0 1400.2 115.3;" xml:space="preserve">
<style type="text/css">
	.st0{display:none;fill:#FFFFFF;stroke:#000000;stroke-miterlimit:10;}
	.st1{display:none;}
	.st2{display:inline;fill:#263654;stroke:#FFFFFF;stroke-width:2;stroke-miterlimit:10;}
	.st3{fill:#FFFFFF;}
	.st4{display:inline;fill:#263654;}
	.st5{fill:#FFFFFF;stroke:#FFFFFF;stroke-width:2;stroke-miterlimit:10;}
</style>
<path class="st0" d="M545.8,281.6"/>
<path class="st0" d="M485.8,479.6"/>
<g class="st1">
	<path class="st2" d="M1005.6,78.2h-14v-8.4h37.7v8.4h-14v38h-9.8v-38H1005.6z"/>
	<path class="st2" d="M1035.4,69.9h9.7v17.9h18.4V69.9h9.7v46.4h-9.7V96.8H1045v19.5h-9.7L1035.4,69.9L1035.4,69.9z"/>
	<path class="st2" d="M1082.6,69.9h31.7v8.3h-22v10.1h20.7v8.3h-20.7V108h23.3l-1,8.3h-32V69.9z"/>
	<path class="st2" d="M1122.5,69.9h11.6l11.6,34.6l11.9-34.6h11.3v46.4h-8.9v-31l-10.6,30.9h-7.5l-10.7-30.9v30.9h-8.7L1122.5,69.9
		L1122.5,69.9z"/>
	<path class="st2" d="M1178.4,69.9h31.7v8.3h-22v10.1h20.7v8.3h-20.7V108h23.3l-1,8.3h-32V69.9z"/>
</g>
<g>
	<path class="st3" d="M36.9,69.7c0.2,5.4,1.3,9.6,3.3,12.5c2,3,5.1,4.4,9.4,4.4s7.4-1.3,9.3-3.9c1.9-2.6,2.8-6.1,2.8-10.7V0h36.7
		v70.6c0,15.7-4.3,27.6-13,35.6s-20.6,12-35.8,12c-16,0-28.2-4.1-36.3-12.4C5.1,97.5,0.8,85.5,0.4,69.7H36.9z"/>
	<path class="st3" d="M180.9,96.7h-36.5l-5,18.6h-36.2L140.7,0h45.2L223,115.3h-37L180.9,96.7z M152.2,68.1h21l-10.5-38.3
		L152.2,68.1z"/>
	<path class="st3" d="M334.2,71.2c-0.3,6.7-1.6,12.9-3.9,18.6s-5.6,10.7-9.9,14.9c-4.3,4.2-9.8,7.5-16.3,9.9s-14.2,3.6-23,3.6
		c-9.8,0-18.3-1.5-25.4-4.4s-12.9-7-17.5-12.2s-8-11.5-10.2-18.7c-2.2-7.3-3.3-15.3-3.3-24s1.1-16.9,3.3-24.4s5.7-14.1,10.3-19.6
		C243,9.4,249,5,256.2,1.8c7.3-3.2,16-4.8,26.1-4.8c15.3,0,26.9,3.6,34.9,10.8s13,17.5,15.2,30.8l-36.5,4c-0.4-2-1-3.9-1.7-5.7
		c-0.7-1.7-1.6-3.2-2.7-4.5c-1.1-1.3-2.6-2.3-4.3-3c-1.7-0.7-3.8-1-6.3-1c-5.8,0-10.2,2.3-13.1,6.9s-4.4,11.9-4.4,21.8
		c0,6.1,0.5,11.1,1.5,14.9s2.4,6.8,4.1,9s3.7,3.6,6,4.4s4.6,1.1,6.9,1.1c4.4,0,8-1.3,10.7-3.8s4.4-6.4,5-11.7h36.6L334.2,71.2
		L334.2,71.2z"/>
	<path class="st3" d="M393,69.7l-9.2,11.1v34.4h-36.7V0h36.7v38.3L414.2,0h38.4l-35.9,43l40.1,72.4h-39.9L393,69.7z"/>
	<path class="st3" d="M598.3,37.7c0,7.8-1.5,14.4-4.4,19.9c-3,5.5-7.1,10-12.5,13.4l23.9,44.3h-37.5l-18.4-37h-12.9v37H502V0h49.4
		c8.8,0,16.2,1,22.2,3s10.8,4.7,14.5,8.1s6.3,7.4,7.8,12C597.5,27.7,598.3,32.6,598.3,37.7z M536.4,51.6h12.3c5.5,0,9.4-1,11.7-3.1
		c2.3-2,3.5-5.1,3.5-9.2s-1.2-7.2-3.5-9.2s-6.2-3.1-11.7-3.1h-12.3V51.6z"/>
	<path class="st3" d="M638.5,0l17.6,42l17.8-42H712l-37.8,72.5v42.8h-36.8V72.5L599.6,0H638.5z"/>
	<path class="st3" d="M774,96.7h-36.5l-5,18.6h-36.2L733.8,0H779l37.1,115.3h-37L774,96.7z M745.2,68.1h21l-10.5-38.3L745.2,68.1z"
		/>
	<path class="st3" d="M829.1,0h31.5l36.8,58.3V0h34.2v115.3h-31.2l-37.1-58.6v58.6h-34.2V0z"/>
</g>
<g class="st1">
	<path class="st4" d="M1004.4,76.5h-12.3v-6.6h32.6v6.6h-12.4V113h-7.9V76.5z"/>
	<path class="st4" d="M1053.9,93.9h-16.3v12.7h18.2v6.5h-26V69.9h25.1v6.5h-17.2v11.1h16.3L1053.9,93.9L1053.9,93.9z"/>
	<path class="st4" d="M1099.1,95.4c-0.3-5.6-0.6-12.3-0.5-18.1h-0.2c-1.4,5.2-3.2,11.1-5.1,16.5l-6.3,18.7h-6l-5.8-18.4
		c-1.7-5.5-3.2-11.4-4.4-16.8h-0.1c-0.2,5.6-0.4,12.5-0.8,18.4l-1,17.3h-7.4l2.9-43.1h10.4l5.6,17.3c1.5,5.1,2.9,10.2,4,15h0.2
		c1.2-4.7,2.6-10,4.3-15l6-17.3h10.2l2.5,43.1h-7.7L1099.1,95.4z"/>
	<path class="st4" d="M1115.6,70.5c2.9-0.5,6.8-0.9,12-0.9c5.8,0,9.9,1.2,12.7,3.5c2.6,2.1,4.2,5.5,4.2,9.5c0,4.1-1.3,7.4-3.6,9.7
		c-3.2,3.1-8.1,4.7-13.6,4.7c-1.5,0-2.8-0.1-3.8-0.3V113h-7.8L1115.6,70.5L1115.6,70.5z M1123.4,90.5c1,0.3,2.2,0.4,3.8,0.4
		c5.9,0,9.5-2.9,9.5-7.9c0-4.8-3.3-7.3-8.8-7.3c-2.2,0-3.7,0.2-4.5,0.4V90.5z"/>
	<path class="st4" d="M1151.4,69.9h7.9v36.5h17.7v6.6h-25.6V69.9z"/>
	<path class="st4" d="M1191.9,100.8l-3.7,12.2h-8.1l13.7-43.1h10l14,43.1h-8.5l-3.9-12.2C1205.4,100.8,1191.9,100.8,1191.9,100.8z
		 M1204.2,94.9l-3.4-10.6c-0.8-2.6-1.5-5.6-2.2-8.1h-0.1c-0.6,2.5-1.3,5.5-2,8.1l-3.3,10.6H1204.2z"/>
	<path class="st4" d="M1227,76.5h-12.3v-6.6h32.6v6.6h-12.4V113h-7.9L1227,76.5L1227,76.5z"/>
	<path class="st4" d="M1276.5,93.9h-16.3v12.7h18.2v6.5h-26V69.9h25.1v6.5h-17.2v11.1h16.3L1276.5,93.9L1276.5,93.9z"/>
</g>
<g>
	<path class="st5" d="M995.7,1.8h16.4c3.4,0,6.2,0.4,8.4,1.2c2.3,0.8,4,1.8,5.4,3.1c1.3,1.3,2.3,2.9,2.8,4.7
		c0.6,1.8,0.8,3.7,0.8,5.8c0,2.1-0.3,4.1-0.9,5.9c-0.6,1.8-1.5,3.4-2.8,4.7c-1.3,1.3-3.1,2.4-5.3,3.1c-2.3,0.8-5,1.2-8.4,1.2h-3.6
		v12.7h-12.9V1.8z M1008.6,21h3.6c2,0,3.4-0.4,4.1-1.1c0.7-0.7,1.1-1.8,1.1-3.3c0-1.5-0.4-2.6-1.1-3.3c-0.8-0.7-2.1-1.1-4.1-1.1
		h-3.6V21z"/>
	<path class="st5" d="M1055.1,45.2c-3.4,0-6.5-0.5-9.1-1.5c-2.6-1-4.8-2.5-6.6-4.4c-1.8-1.9-3.2-4.2-4.1-6.9
		c-0.9-2.7-1.4-5.8-1.4-9.2s0.5-6.5,1.4-9.3c0.9-2.7,2.3-5.1,4.1-7.1c1.8-2,4.1-3.5,6.8-4.5c2.7-1,5.8-1.6,9.3-1.6
		c3.4,0,6.5,0.5,9.1,1.5c2.6,1,4.8,2.5,6.6,4.4s3.2,4.2,4.1,6.9c0.9,2.7,1.4,5.8,1.4,9.2s-0.5,6.5-1.4,9.3c-0.9,2.8-2.3,5.1-4.1,7.1
		c-1.8,1.9-4,3.4-6.7,4.5C1061.7,44.6,1058.6,45.2,1055.1,45.2z M1055.3,33.6c4.9,0,7.4-3.6,7.4-10.7c0-7.1-2.5-10.7-7.4-10.7
		c-4.9,0-7.4,3.6-7.4,10.7C1047.9,30.1,1050.3,33.6,1055.3,33.6z"/>
	<path class="st5" d="M1117.3,15.7c0,2.8-0.5,5.3-1.6,7.3c-1.1,2-2.6,3.7-4.6,4.9l8.8,16.2h-13.8l-6.8-13.6h-4.7v13.6h-12.6V1.8
		h18.1c3.2,0,6,0.4,8.1,1.1c2.2,0.7,4,1.7,5.3,3c1.3,1.2,2.3,2.7,2.9,4.4C1117,12,1117.3,13.8,1117.3,15.7z M1094.6,20.7h4.5
		c2,0,3.4-0.4,4.3-1.1c0.8-0.8,1.3-1.9,1.3-3.4c0-1.5-0.4-2.6-1.3-3.4c-0.9-0.8-2.3-1.1-4.3-1.1h-4.5V20.7z"/>
	<path class="st5" d="M1132.8,13.3H1121V1.8h37v11.6h-11.8v30.8h-13.5V13.3z"/>
	<path class="st5" d="M1163.1,1.8h30v10.6h-16.8v6.9h15.9v10.6h-15.9v14.2h-13.2V1.8z"/>
	<path class="st5" d="M1218.7,45.2c-3.4,0-6.5-0.5-9.1-1.5c-2.6-1-4.8-2.5-6.6-4.4c-1.8-1.9-3.2-4.2-4.1-6.9
		c-0.9-2.7-1.4-5.8-1.4-9.2s0.5-6.5,1.4-9.3c0.9-2.7,2.3-5.1,4.1-7.1c1.8-2,4.1-3.5,6.8-4.5c2.7-1,5.8-1.6,9.3-1.6
		c3.4,0,6.5,0.5,9.1,1.5c2.6,1,4.8,2.5,6.6,4.4s3.2,4.2,4.1,6.9c0.9,2.7,1.4,5.8,1.4,9.2s-0.5,6.5-1.4,9.3c-0.9,2.8-2.3,5.1-4.1,7.1
		c-1.8,1.9-4,3.4-6.7,4.5C1225.3,44.6,1222.2,45.2,1218.7,45.2z M1218.9,33.6c4.9,0,7.4-3.6,7.4-10.7c0-7.1-2.5-10.7-7.4-10.7
		c-4.9,0-7.4,3.6-7.4,10.7C1211.4,30.1,1213.9,33.6,1218.9,33.6z"/>
	<path class="st5" d="M1245.5,1.8h13.5v30.8h17.7l-1.1,11.6h-30V1.8z"/>
	<path class="st5" d="M1281.4,1.8h13.5v42.3h-13.5V1.8z"/>
	<path class="st5" d="M1321.4,45.2c-3.4,0-6.5-0.5-9.1-1.5c-2.6-1-4.8-2.5-6.6-4.4c-1.8-1.9-3.2-4.2-4.1-6.9
		c-0.9-2.7-1.4-5.8-1.4-9.2s0.5-6.5,1.4-9.3c0.9-2.7,2.3-5.1,4.1-7.1c1.8-2,4.1-3.5,6.8-4.5c2.7-1,5.8-1.6,9.3-1.6
		c3.4,0,6.5,0.5,9.1,1.5c2.6,1,4.8,2.5,6.6,4.4s3.2,4.2,4.1,6.9c0.9,2.7,1.4,5.8,1.4,9.2s-0.5,6.5-1.4,9.3c-0.9,2.8-2.3,5.1-4.1,7.1
		c-1.8,1.9-4,3.4-6.7,4.5C1328,44.6,1324.9,45.2,1321.4,45.2z M1321.6,33.6c4.9,0,7.4-3.6,7.4-10.7c0-7.1-2.5-10.7-7.4-10.7
		c-4.9,0-7.4,3.6-7.4,10.7C1314.2,30.1,1316.6,33.6,1321.6,33.6z"/>
</g>
<g>
	<path class="st5" d="M1006.8,77.7h-13.2V67.3h38.7v10.4H1019V113h-12.3V77.7z"/>
	<path class="st5" d="M1037.9,67.3h32.7v10.1h-20.7v7.3h19.5v10.1h-19.5v8.1h22.1l-1,10.1h-33V67.3z"/>
	<path class="st5" d="M1114.7,113V87.8l-8.1,25.2h-9l-8.1-25.3V113h-11.3V67.3h14.3l9.8,30.6l9.9-30.6h14.2V113H1114.7z"/>
	<path class="st5" d="M1134.7,67.3h17.1c3.6,0,6.6,0.4,8.9,1.2s4.2,1.9,5.6,3.3c1.4,1.4,2.4,3,2.9,4.8c0.6,1.8,0.8,3.8,0.8,5.9
		c0,2.1-0.3,4.1-0.9,6c-0.6,1.9-1.6,3.6-3,5c-1.4,1.4-3.3,2.5-5.6,3.4c-2.3,0.8-5.2,1.2-8.7,1.2h-5.3V113h-11.9V67.3z M1146.6,88.4
		h5.2c2.6,0,4.3-0.5,5.3-1.4c1-1,1.5-2.4,1.5-4.3s-0.5-3.3-1.5-4.2c-1-0.9-2.8-1.3-5.4-1.3h-5.2V88.4z"/>
	<path class="st5" d="M1176.4,67.3h12.3v35.3h20.2l-1.1,10.4h-31.4V67.3z"/>
	<path class="st5" d="M1242.2,67.3l15.9,45.7h-12.7l-2.6-8.8h-15.4l-2.6,8.8h-12.4l15.9-45.7H1242.2z M1230.3,94.4h9.4l-4.7-15.7
		L1230.3,94.4z"/>
	<path class="st5" d="M1267.3,77.7h-13.2V67.3h38.7v10.4h-13.2V113h-12.3V77.7z"/>
	<path class="st5" d="M1298.5,67.3h32.7v10.1h-20.7v7.3h19.5v10.1h-19.5v8.1h22.1l-1,10.1h-33V67.3z"/>
</g>
</svg>
